:SAMPLES-PER-SECOND 30
:FULLY-SPECIFIED
:DEGREES
238
root  -43.553 40.4399 -0.240513 -123.671 -86.8895 120.815
RightUpLeg  11.4036 -10.8642 -9.4021
RightLeg  10.5413 -4.25448 2.73606
RightFoot  -15.8374 -0.0130073 2.39341
RightToes  0.000481921 0.542163 -0.142578
Spine  -2.09862 0.875855 2.1301
Spine1  13.7227 2.90062 -5.43784
HEad  11.204 13.0635 -17.9358
LeftShoulder1  9.38339 -12.9304 -49.8454
LeftArm  -7.29784 16.6514 -18.5592
LeftForeArm  33.8566 -11.6696 -5.21324
LeftHand  -0.25398 0.0180481 5.50724
RightShoulder  5.27988 8.69555 37.2627
RightArm  3.83925 -7.6309 38.4681
RightForeArm  17.8609 13.7471 6.92775
RightHand  -0.727355 1.98019 -11.6462
LeftUpLeg  -12.1767 5.17207 1.41647
LeftLeg  3.80857 16.964 -3.88472
LeftFoot  9.86165 -0.626535 3.02961
LeftToes  1.06246e-005 4.65868e-005 -8.65513e-006
239
root  -44.2804 40.4794 0.113474 -121.879 -85.825 119.109
RightUpLeg  11.9741 -11.2628 -11.129
RightLeg  11.0878 -3.23132 1.96106
RightFoot  -15.5221 0.0361762 3.88321
RightToes  0.000481921 0.542163 -0.142578
Spine  -2.79583 0.294346 -1.45404
Spine1  13.6438 1.74558 -3.29708
HEad  11.686 11.8641 -16.4135
LeftShoulder1  9.43177 -13.0678 -49.6888
LeftArm  -8.13892 14.6213 -18.619
LeftForeArm  34.3824 -8.25466 -5.50877
LeftHand  -0.25398 0.0180481 5.50724
RightShoulder  5.21363 8.64161 36.92
RightArm  3.14264 -10.2179 38.2503
RightForeArm  18.0772 13.9548 6.74276
RightHand  -0.758127 2.07219 -11.9884
LeftUpLeg  -11.6558 6.35546 0.139267
LeftLeg  5.28461 16.226 -3.94138
LeftFoot  7.79981 -0.486798 2.59234
LeftToes  1.06246e-005 4.65868e-005 -8.65513e-006
240
root  -44.9603 40.563 0.538952 -126.69 -85.1987 124.103
RightUpLeg  11.7545 -11.9853 -12.4572
RightLeg  12.612 -1.55038 1.27973
RightFoot  -14.2037 0.047854 5.83861
RightToes  0.000481921 0.542163 -0.142578
Spine  -3.01854 -0.175741 -3.07454
Spine1  12.9912 1.00959 -2.45613
HEad  12.7559 10.4071 -14.7395
LeftShoulder1  9.48683 -13.2861 -49.3307
LeftArm  -7.7896 12.5545 -18.9811
LeftForeArm  35.0691 -6.15618 -5.61854
LeftHand  -0.25398 0.0180481 5.50724
RightShoulder  5.05679 8.39133 36.5157
RightArm  1.7863 -13.0138 38.0181
RightForeArm  17.5219 14.3069 6.46109
RightHand  -0.766541 2.10312 -12.0711
LeftUpLeg  -10.8386 6.99649 -0.550226
LeftLeg  5.99154 16.0737 -4.05778
LeftFoot  5.51981 -0.308347 1.86149
LeftToes  1.06246e-005 4.65868e-005 -8.65513e-006
241
root  -45.5881 40.6815 1.03074 -137.754 -84.7386 135.237
RightUpLeg  11.0218 -12.3828 -13.2546
RightLeg  14.7923 0.466863 0.699098
RightFoot  -12.0254 -0.0335155 8.34266
RightToes  0.000481921 0.542163 -0.142578
Spine  -2.91559 -0.507666 -3.22888
Spine1  12.4171 0.522554 -2.32331
HEad  13.653 8.98587 -13.392
LeftShoulder1  9.5482 -13.478 -49.0891
LeftArm  -7.57835 10.5054 -19.5847
LeftForeArm  36.3269 -5.68996 -5.77889
LeftHand  -0.25398 0.0180481 5.50724
RightShoulder  4.85483 8.07245 35.9565
RightArm  0.810028 -15.2362 37.524
RightForeArm  15.9505 14.4911 6.35799
RightHand  -0.761177 2.05348 -12.0637
LeftUpLeg  -9.59749 6.34881 -0.492968
LeftLeg  5.74809 17.4444 -4.45759
LeftFoot  4.10432 -0.270544 1.8151
LeftToes  1.06246e-005 4.65868e-005 -8.65513e-006
242
root  -46.1683 40.7805 1.52684 -149.161 -84.1128 146.533
RightUpLeg  9.63457 -11.4463 -13.5671
RightLeg  18.033 1.14792 0.232108
RightFoot  -9.62142 -0.232462 11.0477
RightToes  0.000481921 0.542163 -0.142578
Spine  -2.66463 -0.821668 -3.69007
Spine1  12.2711 -0.196619 -1.37823
HEad  13.9146 7.68471 -12.1994
LeftShoulder1  9.50765 -13.4501 -48.9606
LeftArm  -7.6874 8.53836 -20.4358
LeftForeArm  37.0828 -6.987 -5.93561
LeftHand  -0.25398 0.0180481 5.50724
RightShoulder  4.70879 7.92905 35.2218
RightArm  0.712089 -16.5641 36.777
RightForeArm  13.8889 14.5401 6.43801
RightHand  -0.780346 2.06169 -12.3462
LeftUpLeg  -8.35306 5.69089 -0.300659
LeftLeg  5.63361 18.9632 -4.75859
LeftFoot  2.81236 -0.257803 1.93703
LeftToes  1.06246e-005 4.65868e-005 -8.65513e-006
243
root  -46.6968 40.8273 1.97687 -157.151 -83.3474 154.3
RightUpLeg  7.30248 -9.58914 -13.6721
RightLeg  22.8746 0.0834772 -0.193186
RightFoot  -6.905 -0.545743 12.857
RightToes  0.000481921 0.542163 -0.142578
Spine  -2.04119 -1.16153 -5.1387
Spine1  12.0253 -1.2294 0.660205
HEad  13.9604 6.46472 -10.6268
LeftShoulder1  9.30021 -13.1901 -48.6352
LeftArm  -7.4193 6.94678 -21.4962
LeftForeArm  36.5484 -10.123 -5.89149
LeftHand  -0.25398 0.0180481 5.50724
RightShoulder  4.63459 7.93582 34.5582
RightArm  1.38531 -17.3941 35.9029
RightForeArm  12.1928 14.9066 6.4403
RightHand  -0.817498 2.14629 -12.7848
LeftUpLeg  -7.35811 5.74746 -0.292183
LeftLeg  6.17849 19.8145 -4.75271
LeftFoot  1.18062 -0.193844 1.69833
LeftToes  1.06246e-005 4.65868e-005 -8.65513e-006
244
root  -47.1659 40.8283 2.37787 -162.018 -82.6077 158.859
RightUpLeg  4.21295 -8.51419 -13.8554
RightLeg  28.9565 -1.28802 -1.00954
RightFoot  -3.48473 -0.908479 12.8967
RightToes  0.000481921 0.542163 -0.142578
Spine  -0.866142 -1.50318 -7.03465
Spine1  11.3311 -2.32489 2.9243
HEad  14.1543 5.33544 -8.53942
LeftShoulder1  9.05676 -12.9395 -48.079
LeftArm  -5.20972 5.69248 -22.4435
LeftForeArm  33.8216 -14.5982 -5.20795
LeftHand  -0.25398 0.0180481 5.50724
RightShoulder  4.56256 7.8403 34.2682
RightArm  2.23758 -18.0697 35.0184
RightForeArm  10.8399 15.749 6.22422
RightHand  -0.847934 2.2508 -13.079
LeftUpLeg  -6.54408 6.11516 -0.431371
LeftLeg  7.0422 20.298 -4.62107
LeftFoot  -0.310028 -0.131757 1.38658
LeftToes  1.06246e-005 4.65868e-005 -8.65513e-006
245
root  -47.5875 40.8137 2.74974 -165.081 -82.1177 161.466
RightUpLeg  1.16743 -8.11109 -14.0038
RightLeg  34.8912 -2.90915 -2.4372
RightFoot  -0.0283063 -1.16237 11.7002
RightToes  0.000481921 0.542163 -0.142578
Spine  0.541462 -1.91888 -8.77603
Spine1  10.7044 -3.41225 4.86009
HEad  14.3129 4.40708 -6.23919
LeftShoulder1  8.93382 -12.873 -47.6126
LeftArm  -2.31468 4.13189 -22.6666
LeftForeArm  30.6109 -18.9284 -4.12818
LeftHand  -0.25398 0.0180481 5.50724
RightShoulder  4.46503 7.5723 34.3595
RightArm  2.3793 -18.5383 34.4013
RightForeArm  9.11554 16.6511 5.94257
RightHand  -0.905021 2.54851 -13.4398
LeftUpLeg  -5.68038 6.45274 -0.628627
LeftLeg  7.79441 20.5078 -4.55604
LeftFoot  -1.38541 -0.111014 1.37295
LeftToes  1.06246e-005 4.65868e-005 -8.65513e-006
246
root  -47.9905 40.8162 3.095 -167.186 -82.0125 162.979
RightUpLeg  -1.21252 -8.11218 -14.0117
RightLeg  39.4744 -4.68641 -4.39615
RightFoot  2.01374 -1.23995 10.6658
RightToes  0.000481921 0.542163 -0.142578
Spine  1.74193 -2.47147 -10.3092
Spine1  10.6509 -4.60344 6.56772
HEad  14.4865 3.69628 -4.0417
LeftShoulder1  8.90458 -12.8773 -47.4411
LeftArm  -0.945628 1.83342 -22.0469
LeftForeArm  29.2679 -22.0666 -3.52777
LeftHand  -0.25398 0.0180481 5.50724
RightShoulder  4.35931 7.27673 34.4808
RightArm  1.38889 -18.8609 34.4342
RightForeArm  6.95043 17.2106 5.77315
RightHand  -1.02883 3.17475 -14.1706
LeftUpLeg  -4.5692 6.62607 -0.848474
LeftLeg  8.16746 20.4458 -4.59429
LeftFoot  -2.27608 -0.109863 1.55964
LeftToes  1.06246e-005 4.65868e-005 -8.65513e-006
247
root  -48.4073 40.8549 3.40987 -169.972 -82.2202 165.218
RightUpLeg  -2.93411 -8.2504 -13.6241
RightLeg  42.0322 -6.20492 -6.23435
RightFoot  2.23715 -1.22266 10.3714
RightToes  0.000481921 0.542163 -0.142578
Spine  2.5645 -3.07486 -11.489
Spine1  10.9115 -5.85046 8.32695
HEad  14.613 3.27552 -2.16015
LeftShoulder1  8.8529 -12.782 -47.4417
LeftArm  -1.592 -0.753398 -21.2774
LeftForeArm  30.0231 -24.2302 -3.57955
LeftHand  -0.25398 0.0180481 5.50724
RightShoulder  4.22704 6.99778 34.296
RightArm  -0.12791 -19.3491 35.1052
RightForeArm  5.28839 17.4562 5.68999
RightHand  -1.15411 3.78595 -14.8539
LeftUpLeg  -3.29524 6.6574 -0.955918
LeftLeg  8.15381 20.255 -4.60384
LeftFoot  -3.0887 -0.105803 1.72436
LeftToes  1.06246e-005 4.65868e-005 -8.65513e-006
248
root  -48.8394 40.9066 3.69024 -174.167 -82.4588 169.103
RightUpLeg  -4.43493 -8.22832 -12.7545
RightLeg  42.5069 -6.89327 -7.00526
RightFoot  1.41257 -1.14671 10.3192
RightToes  0.000481921 0.542163 -0.142578
Spine  3.02842 -3.58824 -12.2477
Spine1  11.1522 -6.99182 10.1392
HEad  14.7723 3.07498 -0.538804
LeftShoulder1  8.70355 -12.5564 -47.292
LeftArm  -3.58447 -2.94986 -21.1571
LeftForeArm  31.616 -26.0292 -3.9047
LeftHand  -0.25398 0.0180481 5.50724
RightShoulder  4.07105 6.69743 33.9561
RightArm  -1.14077 -20.0325 35.8272
RightForeArm  4.92045 17.5782 5.61602
RightHand  -1.14943 3.81524 -14.7425
LeftUpLeg  -2.23497 6.64602 -0.883847
LeftLeg  8.11705 20.1013 -4.47533
LeftFoot  -3.77964 -0.0983319 1.83283
LeftToes  1.06246e-005 4.65868e-005 -8.65513e-006
249
root  -49.2633 40.9411 3.93646 -178.662 -82.5235 173.527
RightUpLeg  -5.96588 -7.97875 -11.6685
RightLeg  41.2674 -6.62871 -6.47936
RightFoot  0.330854 -1.03627 10.135
RightToes  0.000481921 0.542163 -0.142578
Spine  3.22198 -3.98567 -12.7497
Spine1  11.4733 -7.96243 11.7469
HEad  14.8182 2.93283 0.871471
LeftShoulder1  8.41913 -12.2199 -46.7103
LeftArm  -5.64765 -4.68051 -21.8553
LeftForeArm  32.6024 -27.6931 -4.21301
LeftHand  -0.25398 0.0180481 5.50724
RightShoulder  3.98903 6.48609 33.9783
RightArm  -1.2405 -20.6002 36.0196
RightForeArm  5.82924 17.6278 5.54418
RightHand  -1.00621 3.25279 -13.7473
LeftUpLeg  -1.541 6.71201 -0.709291
LeftLeg  8.29314 19.9344 -4.31857
LeftFoot  -4.44001 -0.0911052 1.95536
LeftToes  1.06246e-005 4.65868e-005 -8.65513e-006
